<svg width="5774" height="758" viewBox="0 0 5774 758" fill="none" xmlns="http://www.w3.org/2000/svg">
<g clip-path="url(#clip0)">
<g filter="url(#filter0_d)">
<path fill-rule="evenodd" clip-rule="evenodd" d="M5785.16 348.239C5671.3 348.239 5681.65 284.249 5578.15 284.249C5464.3 284.249 5485 348.239 5371.14 348.239C5257.29 348.239 5267.64 284.249 5164.14 284.249C5050.29 284.249 5070.99 348.239 4957.13 348.239C4843.28 348.239 4853.63 284.249 4750.13 284.249C4636.27 284.249 4656.98 348.239 4543.12 348.239C4429.27 348.239 4439.62 284.249 4336.12 284.249C4222.26 284.249 4242.96 348.239 4129.11 348.239C4015.26 348.239 4025.61 284.249 3922.11 284.249C3808.25 284.249 3828.95 348.239 3715.1 348.239C3601.25 348.239 3611.6 284.249 3508.09 284.249C3394.24 284.249 3414.94 348.239 3301.09 348.239C3187.24 348.239 3197.59 284.249 3094.08 284.249C2980.23 284.249 3000.93 348.239 2887.08 348.239C2773.22 348.239 2783.57 284.249 2680.07 284.249C2566.22 284.249 2586.92 348.239 2473.07 348.239C2359.22 348.239 2369.56 284.249 2266.06 284.249C2152.21 284.249 2172.91 348.239 2059.06 348.239C1945.21 348.239 1955.55 284.249 1852.05 284.249C1738.2 284.249 1758.89 348.239 1645.04 348.239C1531.19 348.239 1541.54 284.249 1438.04 284.249C1324.19 284.249 1344.88 348.239 1231.03 348.239C1117.18 348.239 1127.53 284.249 1024.03 284.249C910.178 284.249 930.872 348.239 817.022 348.239C703.172 348.239 713.519 284.249 610.017 284.249C496.166 284.249 516.861 348.239 403.011 348.239C289.161 348.239 299.508 284.249 196.006 284.249C82.1542 284.249 102.851 348.239 -11 348.239V700C102.851 700 82.1542 582.713 196.006 582.713C299.508 582.713 289.161 700 403.011 700C516.861 700 496.166 582.713 610.017 582.713C713.519 582.713 703.172 700 817.022 700C930.872 700 910.178 582.713 1024.03 582.713C1127.53 582.713 1117.18 700 1231.03 700C1344.88 700 1324.19 582.713 1438.04 582.713C1541.54 582.713 1531.19 700 1645.04 700C1758.89 700 1738.2 582.713 1852.05 582.713C1955.55 582.713 1945.21 700 2059.06 700C2172.91 700 2152.21 582.713 2266.06 582.713C2369.56 582.713 2359.22 700 2473.07 700C2586.92 700 2566.22 582.713 2680.07 582.713C2783.57 582.713 2773.22 700 2887.08 700C3000.93 700 2980.23 582.713 3094.08 582.713C3197.59 582.713 3187.24 700 3301.09 700C3414.94 700 3394.24 582.713 3508.09 582.713C3611.6 582.713 3601.25 700 3715.1 700C3828.95 700 3808.25 582.713 3922.11 582.713C4025.61 582.713 4015.26 700 4129.11 700C4242.96 700 4222.26 582.713 4336.12 582.713C4439.62 582.713 4429.27 700 4543.12 700C4656.98 700 4636.27 582.713 4750.13 582.713C4853.63 582.713 4843.28 700 4957.13 700C5070.99 700 5050.29 582.713 5164.14 582.713C5267.64 582.713 5257.29 700 5371.14 700C5485 700 5464.3 582.713 5578.15 582.713C5681.65 582.713 5671.3 700 5785.16 700V348.239Z" fill="#FFF985"/>
<path fill-rule="evenodd" clip-rule="evenodd" d="M5785.16 348.239C5671.3 348.239 5681.65 284.249 5578.15 284.249C5464.3 284.249 5485 348.239 5371.14 348.239C5257.29 348.239 5267.64 284.249 5164.14 284.249C5050.29 284.249 5070.99 348.239 4957.13 348.239C4843.28 348.239 4853.63 284.249 4750.13 284.249C4636.27 284.249 4656.98 348.239 4543.12 348.239C4429.27 348.239 4439.62 284.249 4336.12 284.249C4222.26 284.249 4242.96 348.239 4129.11 348.239C4015.26 348.239 4025.61 284.249 3922.11 284.249C3808.25 284.249 3828.95 348.239 3715.1 348.239C3601.25 348.239 3611.6 284.249 3508.09 284.249C3394.24 284.249 3414.94 348.239 3301.09 348.239C3187.24 348.239 3197.59 284.249 3094.08 284.249C2980.23 284.249 3000.93 348.239 2887.08 348.239C2773.22 348.239 2783.57 284.249 2680.07 284.249C2566.22 284.249 2586.92 348.239 2473.07 348.239C2359.22 348.239 2369.56 284.249 2266.06 284.249C2152.21 284.249 2172.91 348.239 2059.06 348.239C1945.21 348.239 1955.55 284.249 1852.05 284.249C1738.2 284.249 1758.89 348.239 1645.04 348.239C1531.19 348.239 1541.54 284.249 1438.04 284.249C1324.19 284.249 1344.88 348.239 1231.03 348.239C1117.18 348.239 1127.53 284.249 1024.03 284.249C910.178 284.249 930.872 348.239 817.022 348.239C703.172 348.239 713.519 284.249 610.017 284.249C496.166 284.249 516.861 348.239 403.011 348.239C289.161 348.239 299.508 284.249 196.006 284.249C82.1542 284.249 102.851 348.239 -11 348.239V700C102.851 700 82.1542 582.713 196.006 582.713C299.508 582.713 289.161 700 403.011 700C516.861 700 496.166 582.713 610.017 582.713C713.519 582.713 703.172 700 817.022 700C930.872 700 910.178 582.713 1024.03 582.713C1127.53 582.713 1117.18 700 1231.03 700C1344.88 700 1324.19 582.713 1438.04 582.713C1541.54 582.713 1531.19 700 1645.04 700C1758.89 700 1738.2 582.713 1852.05 582.713C1955.55 582.713 1945.21 700 2059.06 700C2172.91 700 2152.21 582.713 2266.06 582.713C2369.56 582.713 2359.22 700 2473.07 700C2586.92 700 2566.22 582.713 2680.07 582.713C2783.57 582.713 2773.22 700 2887.08 700C3000.93 700 2980.23 582.713 3094.08 582.713C3197.59 582.713 3187.24 700 3301.09 700C3414.94 700 3394.24 582.713 3508.09 582.713C3611.6 582.713 3601.25 700 3715.1 700C3828.95 700 3808.25 582.713 3922.11 582.713C4025.61 582.713 4015.26 700 4129.11 700C4242.96 700 4222.26 582.713 4336.12 582.713C4439.62 582.713 4429.27 700 4543.12 700C4656.98 700 4636.27 582.713 4750.13 582.713C4853.63 582.713 4843.28 700 4957.13 700C5070.99 700 5050.29 582.713 5164.14 582.713C5267.64 582.713 5257.29 700 5371.14 700C5485 700 5464.3 582.713 5578.15 582.713C5681.65 582.713 5671.3 700 5785.16 700V348.239Z" stroke="black" stroke-width="2"/>
<path fill-rule="evenodd" clip-rule="evenodd" d="M5785.16 255.857C5671.3 255.857 5681.65 191.869 5578.15 191.869C5464.3 191.869 5485 255.857 5371.14 255.857C5257.29 255.857 5267.64 191.869 5164.14 191.869C5050.29 191.869 5070.99 255.857 4957.13 255.857C4843.28 255.857 4853.63 191.869 4750.13 191.869C4636.27 191.869 4656.98 255.857 4543.12 255.857C4429.27 255.857 4439.62 191.869 4336.12 191.869C4222.26 191.869 4242.96 255.857 4129.11 255.857C4015.26 255.857 4025.61 191.869 3922.11 191.869C3808.25 191.869 3828.95 255.857 3715.1 255.857C3601.25 255.857 3611.6 191.869 3508.09 191.869C3394.24 191.869 3414.94 255.857 3301.09 255.857C3187.24 255.857 3197.59 191.869 3094.08 191.869C2980.23 191.869 3000.93 255.857 2887.08 255.857C2773.22 255.857 2783.57 191.869 2680.07 191.869C2566.22 191.869 2586.92 255.857 2473.07 255.857C2359.22 255.857 2369.56 191.869 2266.06 191.869C2152.21 191.869 2172.91 255.857 2059.06 255.857C1945.21 255.857 1955.55 191.869 1852.05 191.869C1738.2 191.869 1758.89 255.857 1645.04 255.857C1531.19 255.857 1541.54 191.869 1438.04 191.869C1324.19 191.869 1344.88 255.857 1231.03 255.857C1117.18 255.857 1127.53 191.869 1024.03 191.869C910.178 191.869 930.872 255.857 817.022 255.857C703.172 255.857 713.519 191.869 610.017 191.869C496.166 191.869 516.861 255.857 403.011 255.857C289.161 255.857 299.508 191.869 196.006 191.869C82.1542 191.869 102.851 255.857 -11 255.857V607.618C102.851 607.618 82.1542 490.331 196.006 490.331C299.508 490.331 289.161 607.618 403.011 607.618C516.861 607.618 496.166 490.331 610.017 490.331C713.519 490.331 703.172 607.618 817.022 607.618C930.872 607.618 910.178 490.331 1024.03 490.331C1127.53 490.331 1117.18 607.618 1231.03 607.618C1344.88 607.618 1324.19 490.331 1438.04 490.331C1541.54 490.331 1531.19 607.618 1645.04 607.618C1758.89 607.618 1738.2 490.331 1852.05 490.331C1955.55 490.331 1945.21 607.618 2059.06 607.618C2172.91 607.618 2152.21 490.331 2266.06 490.331C2369.56 490.331 2359.22 607.618 2473.07 607.618C2586.92 607.618 2566.22 490.331 2680.07 490.331C2783.57 490.331 2773.22 607.618 2887.08 607.618C3000.93 607.618 2980.23 490.331 3094.08 490.331C3197.59 490.331 3187.24 607.618 3301.09 607.618C3414.94 607.618 3394.24 490.331 3508.09 490.331C3611.6 490.331 3601.25 607.618 3715.1 607.618C3828.95 607.618 3808.25 490.331 3922.11 490.331C4025.61 490.331 4015.26 607.618 4129.11 607.618C4242.96 607.618 4222.26 490.331 4336.12 490.331C4439.62 490.331 4429.27 607.618 4543.12 607.618C4656.98 607.618 4636.27 490.331 4750.13 490.331C4853.63 490.331 4843.28 607.618 4957.13 607.618C5070.99 607.618 5050.29 490.331 5164.14 490.331C5267.64 490.331 5257.29 607.618 5371.14 607.618C5485 607.618 5464.3 490.331 5578.15 490.331C5681.65 490.331 5671.3 607.618 5785.16 607.618V255.857Z" fill="#FF8585"/>
<path fill-rule="evenodd" clip-rule="evenodd" d="M5785.16 255.857C5671.3 255.857 5681.65 191.869 5578.15 191.869C5464.3 191.869 5485 255.857 5371.14 255.857C5257.29 255.857 5267.64 191.869 5164.14 191.869C5050.29 191.869 5070.99 255.857 4957.13 255.857C4843.28 255.857 4853.63 191.869 4750.13 191.869C4636.27 191.869 4656.98 255.857 4543.12 255.857C4429.27 255.857 4439.62 191.869 4336.12 191.869C4222.26 191.869 4242.96 255.857 4129.11 255.857C4015.26 255.857 4025.61 191.869 3922.11 191.869C3808.25 191.869 3828.95 255.857 3715.1 255.857C3601.25 255.857 3611.6 191.869 3508.09 191.869C3394.24 191.869 3414.94 255.857 3301.09 255.857C3187.24 255.857 3197.59 191.869 3094.08 191.869C2980.23 191.869 3000.93 255.857 2887.08 255.857C2773.22 255.857 2783.57 191.869 2680.07 191.869C2566.22 191.869 2586.92 255.857 2473.07 255.857C2359.22 255.857 2369.56 191.869 2266.06 191.869C2152.21 191.869 2172.91 255.857 2059.06 255.857C1945.21 255.857 1955.55 191.869 1852.05 191.869C1738.2 191.869 1758.89 255.857 1645.04 255.857C1531.19 255.857 1541.54 191.869 1438.04 191.869C1324.19 191.869 1344.88 255.857 1231.03 255.857C1117.18 255.857 1127.53 191.869 1024.03 191.869C910.178 191.869 930.872 255.857 817.022 255.857C703.172 255.857 713.519 191.869 610.017 191.869C496.166 191.869 516.861 255.857 403.011 255.857C289.161 255.857 299.508 191.869 196.006 191.869C82.1542 191.869 102.851 255.857 -11 255.857V607.618C102.851 607.618 82.1542 490.331 196.006 490.331C299.508 490.331 289.161 607.618 403.011 607.618C516.861 607.618 496.166 490.331 610.017 490.331C713.519 490.331 703.172 607.618 817.022 607.618C930.872 607.618 910.178 490.331 1024.03 490.331C1127.53 490.331 1117.18 607.618 1231.03 607.618C1344.88 607.618 1324.19 490.331 1438.04 490.331C1541.54 490.331 1531.19 607.618 1645.04 607.618C1758.89 607.618 1738.2 490.331 1852.05 490.331C1955.55 490.331 1945.21 607.618 2059.06 607.618C2172.91 607.618 2152.21 490.331 2266.06 490.331C2369.56 490.331 2359.22 607.618 2473.07 607.618C2586.92 607.618 2566.22 490.331 2680.07 490.331C2783.57 490.331 2773.22 607.618 2887.08 607.618C3000.93 607.618 2980.23 490.331 3094.08 490.331C3197.59 490.331 3187.24 607.618 3301.09 607.618C3414.94 607.618 3394.24 490.331 3508.09 490.331C3611.6 490.331 3601.25 607.618 3715.1 607.618C3828.95 607.618 3808.25 490.331 3922.11 490.331C4025.61 490.331 4015.26 607.618 4129.11 607.618C4242.96 607.618 4222.26 490.331 4336.12 490.331C4439.62 490.331 4429.27 607.618 4543.12 607.618C4656.98 607.618 4636.27 490.331 4750.13 490.331C4853.63 490.331 4843.28 607.618 4957.13 607.618C5070.99 607.618 5050.29 490.331 5164.14 490.331C5267.64 490.331 5257.29 607.618 5371.14 607.618C5485 607.618 5464.3 490.331 5578.15 490.331C5681.65 490.331 5671.3 607.618 5785.16 607.618V255.857Z" stroke="black" stroke-width="2"/>
<path fill-rule="evenodd" clip-rule="evenodd" d="M5785.16 163.476C5671.3 163.476 5681.65 99.4873 5578.15 99.4873C5464.3 99.4873 5485 163.476 5371.14 163.476C5257.29 163.476 5267.64 99.4873 5164.14 99.4873C5050.29 99.4873 5070.99 163.476 4957.13 163.476C4843.28 163.476 4853.63 99.4873 4750.13 99.4873C4636.27 99.4873 4656.98 163.476 4543.12 163.476C4429.27 163.476 4439.62 99.4873 4336.12 99.4873C4222.26 99.4873 4242.96 163.476 4129.11 163.476C4015.26 163.476 4025.61 99.4873 3922.11 99.4873C3808.25 99.4873 3828.95 163.476 3715.1 163.476C3601.25 163.476 3611.6 99.4873 3508.09 99.4873C3394.24 99.4873 3414.94 163.476 3301.09 163.476C3187.24 163.476 3197.59 99.4873 3094.08 99.4873C2980.23 99.4873 3000.93 163.476 2887.08 163.476C2773.22 163.476 2783.57 99.4873 2680.07 99.4873C2566.22 99.4873 2586.92 163.476 2473.07 163.476C2359.22 163.476 2369.56 99.4873 2266.06 99.4873C2152.21 99.4873 2172.91 163.476 2059.06 163.476C1945.21 163.476 1955.55 99.4873 1852.05 99.4873C1738.2 99.4873 1758.89 163.476 1645.04 163.476C1531.19 163.476 1541.54 99.4873 1438.04 99.4873C1324.19 99.4873 1344.88 163.476 1231.03 163.476C1117.18 163.476 1127.53 99.4873 1024.03 99.4873C910.178 99.4873 930.872 163.476 817.022 163.476C703.172 163.476 713.519 99.4873 610.017 99.4873C496.166 99.4873 516.861 163.476 403.011 163.476C289.161 163.476 299.508 99.4873 196.006 99.4873C82.1542 99.4873 102.851 163.476 -11 163.476V515.235C102.851 515.235 82.1542 397.95 196.006 397.95C299.508 397.95 289.161 515.235 403.011 515.235C516.861 515.235 496.166 397.95 610.017 397.95C713.519 397.95 703.172 515.235 817.022 515.235C930.872 515.235 910.178 397.95 1024.03 397.95C1127.53 397.95 1117.18 515.235 1231.03 515.235C1344.88 515.235 1324.19 397.95 1438.04 397.95C1541.54 397.95 1531.19 515.235 1645.04 515.235C1758.89 515.235 1738.2 397.95 1852.05 397.95C1955.55 397.95 1945.21 515.235 2059.06 515.235C2172.91 515.235 2152.21 397.95 2266.06 397.95C2369.56 397.95 2359.22 515.235 2473.07 515.235C2586.92 515.235 2566.22 397.95 2680.07 397.95C2783.57 397.95 2773.22 515.235 2887.08 515.235C3000.93 515.235 2980.23 397.95 3094.08 397.95C3197.59 397.95 3187.24 515.235 3301.09 515.235C3414.94 515.235 3394.24 397.95 3508.09 397.95C3611.6 397.95 3601.25 515.235 3715.1 515.235C3828.95 515.235 3808.25 397.95 3922.11 397.95C4025.61 397.95 4015.26 515.235 4129.11 515.235C4242.96 515.235 4222.26 397.95 4336.12 397.95C4439.62 397.95 4429.27 515.235 4543.12 515.235C4656.98 515.235 4636.27 397.95 4750.13 397.95C4853.63 397.95 4843.28 515.235 4957.13 515.235C5070.99 515.235 5050.29 397.95 5164.14 397.95C5267.64 397.95 5257.29 515.235 5371.14 515.235C5485 515.235 5464.3 397.95 5578.15 397.95C5681.65 397.95 5671.3 515.235 5785.16 515.235V163.476Z" fill="#FF85FD"/>
<path fill-rule="evenodd" clip-rule="evenodd" d="M5785.16 163.476C5671.3 163.476 5681.65 99.4873 5578.15 99.4873C5464.3 99.4873 5485 163.476 5371.14 163.476C5257.29 163.476 5267.64 99.4873 5164.14 99.4873C5050.29 99.4873 5070.99 163.476 4957.13 163.476C4843.28 163.476 4853.63 99.4873 4750.13 99.4873C4636.27 99.4873 4656.98 163.476 4543.12 163.476C4429.27 163.476 4439.62 99.4873 4336.12 99.4873C4222.26 99.4873 4242.96 163.476 4129.11 163.476C4015.26 163.476 4025.61 99.4873 3922.11 99.4873C3808.25 99.4873 3828.95 163.476 3715.1 163.476C3601.25 163.476 3611.6 99.4873 3508.09 99.4873C3394.24 99.4873 3414.94 163.476 3301.09 163.476C3187.24 163.476 3197.59 99.4873 3094.08 99.4873C2980.23 99.4873 3000.93 163.476 2887.08 163.476C2773.22 163.476 2783.57 99.4873 2680.07 99.4873C2566.22 99.4873 2586.92 163.476 2473.07 163.476C2359.22 163.476 2369.56 99.4873 2266.06 99.4873C2152.21 99.4873 2172.91 163.476 2059.06 163.476C1945.21 163.476 1955.55 99.4873 1852.05 99.4873C1738.2 99.4873 1758.89 163.476 1645.04 163.476C1531.19 163.476 1541.54 99.4873 1438.04 99.4873C1324.19 99.4873 1344.88 163.476 1231.03 163.476C1117.18 163.476 1127.53 99.4873 1024.03 99.4873C910.178 99.4873 930.872 163.476 817.022 163.476C703.172 163.476 713.519 99.4873 610.017 99.4873C496.166 99.4873 516.861 163.476 403.011 163.476C289.161 163.476 299.508 99.4873 196.006 99.4873C82.1542 99.4873 102.851 163.476 -11 163.476V515.235C102.851 515.235 82.1542 397.95 196.006 397.95C299.508 397.95 289.161 515.235 403.011 515.235C516.861 515.235 496.166 397.95 610.017 397.95C713.519 397.95 703.172 515.235 817.022 515.235C930.872 515.235 910.178 397.95 1024.03 397.95C1127.53 397.95 1117.18 515.235 1231.03 515.235C1344.88 515.235 1324.19 397.95 1438.04 397.95C1541.54 397.95 1531.19 515.235 1645.04 515.235C1758.89 515.235 1738.2 397.95 1852.05 397.95C1955.55 397.95 1945.21 515.235 2059.06 515.235C2172.91 515.235 2152.21 397.95 2266.06 397.95C2369.56 397.95 2359.22 515.235 2473.07 515.235C2586.92 515.235 2566.22 397.95 2680.07 397.95C2783.57 397.95 2773.22 515.235 2887.08 515.235C3000.93 515.235 2980.23 397.95 3094.08 397.95C3197.59 397.95 3187.24 515.235 3301.09 515.235C3414.94 515.235 3394.24 397.95 3508.09 397.95C3611.6 397.95 3601.25 515.235 3715.1 515.235C3828.95 515.235 3808.25 397.95 3922.11 397.95C4025.61 397.95 4015.26 515.235 4129.11 515.235C4242.96 515.235 4222.26 397.95 4336.12 397.95C4439.62 397.95 4429.27 515.235 4543.12 515.235C4656.98 515.235 4636.27 397.95 4750.13 397.95C4853.63 397.95 4843.28 515.235 4957.13 515.235C5070.99 515.235 5050.29 397.95 5164.14 397.95C5267.64 397.95 5257.29 515.235 5371.14 515.235C5485 515.235 5464.3 397.95 5578.15 397.95C5681.65 397.95 5671.3 515.235 5785.16 515.235V163.476Z" stroke="black" stroke-width="2"/>
<path fill-rule="evenodd" clip-rule="evenodd" d="M5785.16 124.391C5671.3 124.391 5681.65 131.465 5578.15 131.465C5464.3 131.465 5485 124.391 5371.14 124.391C5257.29 124.391 5267.64 131.465 5164.14 131.465C5050.29 131.465 5070.99 124.391 4957.13 124.391C4843.28 124.391 4853.63 131.465 4750.13 131.465C4636.27 131.465 4656.98 124.391 4543.12 124.391C4429.27 124.391 4439.62 131.465 4336.12 131.465C4222.26 131.465 4242.96 124.391 4129.11 124.391C4015.26 124.391 4025.61 131.465 3922.11 131.465C3808.25 131.465 3828.95 124.391 3715.1 124.391C3601.25 124.391 3611.6 131.465 3508.09 131.465C3394.24 131.465 3414.94 124.391 3301.09 124.391C3187.24 124.391 3197.59 131.465 3094.08 131.465C2980.23 131.465 3000.93 124.391 2887.08 124.391C2773.22 124.391 2783.57 131.465 2680.07 131.465C2566.22 131.465 2586.92 124.391 2473.07 124.391C2359.22 124.391 2369.56 131.465 2266.06 131.465C2152.21 131.465 2172.91 124.391 2059.06 124.391C1945.21 124.391 1955.55 131.465 1852.05 131.465C1738.2 131.465 1758.89 124.391 1645.04 124.391C1531.19 124.391 1541.54 131.465 1438.04 131.465C1324.19 131.465 1344.88 124.391 1231.03 124.391C1117.18 124.391 1127.53 131.465 1024.03 131.465C910.178 131.465 930.872 124.391 817.022 124.391C703.172 124.391 713.519 131.465 610.017 131.465C496.166 131.465 516.861 124.391 403.011 124.391C289.161 124.391 299.508 131.465 196.006 131.465C82.1542 131.465 102.851 124.391 -11 124.391V422.853C102.851 422.853 82.1542 305.569 196.006 305.569C299.508 305.569 289.161 422.853 403.011 422.853C516.861 422.853 496.166 305.569 610.017 305.569C713.519 305.569 703.172 422.853 817.022 422.853C930.872 422.853 910.178 305.569 1024.03 305.569C1127.53 305.569 1117.18 422.853 1231.03 422.853C1344.88 422.853 1324.19 305.569 1438.04 305.569C1541.54 305.569 1531.19 422.853 1645.04 422.853C1758.89 422.853 1738.2 305.569 1852.05 305.569C1955.55 305.569 1945.21 422.853 2059.06 422.853C2172.91 422.853 2152.21 305.569 2266.06 305.569C2369.56 305.569 2359.22 422.853 2473.07 422.853C2586.92 422.853 2566.22 305.569 2680.07 305.569C2783.57 305.569 2773.22 422.853 2887.08 422.853C3000.93 422.853 2980.23 305.569 3094.08 305.569C3197.59 305.569 3187.24 422.853 3301.09 422.853C3414.94 422.853 3394.24 305.569 3508.09 305.569C3611.6 305.569 3601.25 422.853 3715.1 422.853C3828.95 422.853 3808.25 305.569 3922.11 305.569C4025.61 305.569 4015.26 422.853 4129.11 422.853C4242.96 422.853 4222.26 305.569 4336.12 305.569C4439.62 305.569 4429.27 422.853 4543.12 422.853C4656.98 422.853 4636.27 305.569 4750.13 305.569C4853.63 305.569 4843.28 422.853 4957.13 422.853C5070.99 422.853 5050.29 305.569 5164.14 305.569C5267.64 305.569 5257.29 422.853 5371.14 422.853C5485 422.853 5464.3 305.569 5578.15 305.569C5681.65 305.569 5671.3 422.853 5785.16 422.853V124.391Z" fill="#9B8CFF"/>
<path fill-rule="evenodd" clip-rule="evenodd" d="M5785.16 124.391C5671.3 124.391 5681.65 131.465 5578.15 131.465C5464.3 131.465 5485 124.391 5371.14 124.391C5257.29 124.391 5267.64 131.465 5164.14 131.465C5050.29 131.465 5070.99 124.391 4957.13 124.391C4843.28 124.391 4853.63 131.465 4750.13 131.465C4636.27 131.465 4656.98 124.391 4543.12 124.391C4429.27 124.391 4439.62 131.465 4336.12 131.465C4222.26 131.465 4242.96 124.391 4129.11 124.391C4015.26 124.391 4025.61 131.465 3922.11 131.465C3808.25 131.465 3828.95 124.391 3715.1 124.391C3601.25 124.391 3611.6 131.465 3508.09 131.465C3394.24 131.465 3414.94 124.391 3301.09 124.391C3187.24 124.391 3197.59 131.465 3094.08 131.465C2980.23 131.465 3000.93 124.391 2887.08 124.391C2773.22 124.391 2783.57 131.465 2680.07 131.465C2566.22 131.465 2586.92 124.391 2473.07 124.391C2359.22 124.391 2369.56 131.465 2266.06 131.465C2152.21 131.465 2172.91 124.391 2059.06 124.391C1945.21 124.391 1955.55 131.465 1852.05 131.465C1738.2 131.465 1758.89 124.391 1645.04 124.391C1531.19 124.391 1541.54 131.465 1438.04 131.465C1324.19 131.465 1344.88 124.391 1231.03 124.391C1117.18 124.391 1127.53 131.465 1024.03 131.465C910.178 131.465 930.872 124.391 817.022 124.391C703.172 124.391 713.519 131.465 610.017 131.465C496.166 131.465 516.861 124.391 403.011 124.391C289.161 124.391 299.508 131.465 196.006 131.465C82.1542 131.465 102.851 124.391 -11 124.391V422.853C102.851 422.853 82.1542 305.569 196.006 305.569C299.508 305.569 289.161 422.853 403.011 422.853C516.861 422.853 496.166 305.569 610.017 305.569C713.519 305.569 703.172 422.853 817.022 422.853C930.872 422.853 910.178 305.569 1024.03 305.569C1127.53 305.569 1117.18 422.853 1231.03 422.853C1344.88 422.853 1324.19 305.569 1438.04 305.569C1541.54 305.569 1531.19 422.853 1645.04 422.853C1758.89 422.853 1738.2 305.569 1852.05 305.569C1955.55 305.569 1945.21 422.853 2059.06 422.853C2172.91 422.853 2152.21 305.569 2266.06 305.569C2369.56 305.569 2359.22 422.853 2473.07 422.853C2586.92 422.853 2566.22 305.569 2680.07 305.569C2783.57 305.569 2773.22 422.853 2887.08 422.853C3000.93 422.853 2980.23 305.569 3094.08 305.569C3197.59 305.569 3187.24 422.853 3301.09 422.853C3414.94 422.853 3394.24 305.569 3508.09 305.569C3611.6 305.569 3601.25 422.853 3715.1 422.853C3828.95 422.853 3808.25 305.569 3922.11 305.569C4025.61 305.569 4015.26 422.853 4129.11 422.853C4242.96 422.853 4222.26 305.569 4336.12 305.569C4439.62 305.569 4429.27 422.853 4543.12 422.853C4656.98 422.853 4636.27 305.569 4750.13 305.569C4853.63 305.569 4843.28 422.853 4957.13 422.853C5070.99 422.853 5050.29 305.569 5164.14 305.569C5267.64 305.569 5257.29 422.853 5371.14 422.853C5485 422.853 5464.3 305.569 5578.15 305.569C5681.65 305.569 5671.3 422.853 5785.16 422.853V124.391Z" stroke="black" stroke-width="2"/>
<path fill-rule="evenodd" clip-rule="evenodd" d="M5785.16 156.369C5671.3 156.369 5681.65 92.3809 5578.15 92.3809C5464.3 92.3809 5485 156.369 5371.14 156.369C5257.29 156.369 5267.64 92.3809 5164.14 92.3809C5050.29 92.3809 5070.99 156.369 4957.13 156.369C4843.28 156.369 4853.63 92.3809 4750.13 92.3809C4636.27 92.3809 4656.98 156.369 4543.12 156.369C4429.27 156.369 4439.62 92.3809 4336.12 92.3809C4222.26 92.3809 4242.96 156.369 4129.11 156.369C4015.26 156.369 4025.61 92.3809 3922.11 92.3809C3808.25 92.3809 3828.95 156.369 3715.1 156.369C3601.25 156.369 3611.6 92.3809 3508.09 92.3809C3394.24 92.3809 3414.94 156.369 3301.09 156.369C3187.24 156.369 3197.59 92.3809 3094.08 92.3809C2980.23 92.3809 3000.93 156.369 2887.08 156.369C2773.22 156.369 2783.57 92.3809 2680.07 92.3809C2566.22 92.3809 2586.92 156.369 2473.07 156.369C2359.22 156.369 2369.56 92.3809 2266.06 92.3809C2152.21 92.3809 2172.91 156.369 2059.06 156.369C1945.21 156.369 1955.55 92.3809 1852.05 92.3809C1738.2 92.3809 1758.89 156.369 1645.04 156.369C1531.19 156.369 1541.54 92.3809 1438.04 92.3809C1324.19 92.3809 1344.88 156.369 1231.03 156.369C1117.18 156.369 1127.53 92.3809 1024.03 92.3809C910.178 92.3809 930.872 156.369 817.022 156.369C703.172 156.369 713.519 92.3809 610.017 92.3809C496.166 92.3809 516.861 156.369 403.011 156.369C289.161 156.369 299.508 92.3809 196.006 92.3809C82.1542 92.3809 102.851 156.369 -11 156.369V330.472C102.851 330.472 82.1542 213.187 196.006 213.187C299.508 213.187 289.161 330.472 403.011 330.472C516.861 330.472 496.166 213.187 610.017 213.187C713.519 213.187 703.172 330.472 817.022 330.472C930.872 330.472 910.178 213.187 1024.03 213.187C1127.53 213.187 1117.18 330.472 1231.03 330.472C1344.88 330.472 1324.19 213.187 1438.04 213.187C1541.54 213.187 1531.19 330.472 1645.04 330.472C1758.89 330.472 1738.2 213.187 1852.05 213.187C1955.55 213.187 1945.21 330.472 2059.06 330.472C2172.91 330.472 2152.21 213.187 2266.06 213.187C2369.56 213.187 2359.22 330.472 2473.07 330.472C2586.92 330.472 2566.22 213.187 2680.07 213.187C2783.57 213.187 2773.22 330.472 2887.08 330.472C3000.93 330.472 2980.23 213.187 3094.08 213.187C3197.59 213.187 3187.24 330.472 3301.09 330.472C3414.94 330.472 3394.24 213.187 3508.09 213.187C3611.6 213.187 3601.25 330.472 3715.1 330.472C3828.95 330.472 3808.25 213.187 3922.11 213.187C4025.61 213.187 4015.26 330.472 4129.11 330.472C4242.96 330.472 4222.26 213.187 4336.12 213.187C4439.62 213.187 4429.27 330.472 4543.12 330.472C4656.98 330.472 4636.27 213.187 4750.13 213.187C4853.63 213.187 4843.28 330.472 4957.13 330.472C5070.99 330.472 5050.29 213.187 5164.14 213.187C5267.64 213.187 5257.29 330.472 5371.14 330.472C5485 330.472 5464.3 213.187 5578.15 213.187C5681.65 213.187 5671.3 330.472 5785.16 330.472V156.369Z" fill="#85F0FF"/>
<path fill-rule="evenodd" clip-rule="evenodd" d="M5785.16 156.369C5671.3 156.369 5681.65 92.3809 5578.15 92.3809C5464.3 92.3809 5485 156.369 5371.14 156.369C5257.29 156.369 5267.64 92.3809 5164.14 92.3809C5050.29 92.3809 5070.99 156.369 4957.13 156.369C4843.28 156.369 4853.63 92.3809 4750.13 92.3809C4636.27 92.3809 4656.98 156.369 4543.12 156.369C4429.27 156.369 4439.62 92.3809 4336.12 92.3809C4222.26 92.3809 4242.96 156.369 4129.11 156.369C4015.26 156.369 4025.61 92.3809 3922.11 92.3809C3808.25 92.3809 3828.95 156.369 3715.1 156.369C3601.25 156.369 3611.6 92.3809 3508.09 92.3809C3394.24 92.3809 3414.94 156.369 3301.09 156.369C3187.24 156.369 3197.59 92.3809 3094.08 92.3809C2980.23 92.3809 3000.93 156.369 2887.08 156.369C2773.22 156.369 2783.57 92.3809 2680.07 92.3809C2566.22 92.3809 2586.92 156.369 2473.07 156.369C2359.22 156.369 2369.56 92.3809 2266.06 92.3809C2152.21 92.3809 2172.91 156.369 2059.06 156.369C1945.21 156.369 1955.55 92.3809 1852.05 92.3809C1738.2 92.3809 1758.89 156.369 1645.04 156.369C1531.19 156.369 1541.54 92.3809 1438.04 92.3809C1324.19 92.3809 1344.88 156.369 1231.03 156.369C1117.18 156.369 1127.53 92.3809 1024.03 92.3809C910.178 92.3809 930.872 156.369 817.022 156.369C703.172 156.369 713.519 92.3809 610.017 92.3809C496.166 92.3809 516.861 156.369 403.011 156.369C289.161 156.369 299.508 92.3809 196.006 92.3809C82.1542 92.3809 102.851 156.369 -11 156.369V330.472C102.851 330.472 82.1542 213.187 196.006 213.187C299.508 213.187 289.161 330.472 403.011 330.472C516.861 330.472 496.166 213.187 610.017 213.187C713.519 213.187 703.172 330.472 817.022 330.472C930.872 330.472 910.178 213.187 1024.03 213.187C1127.53 213.187 1117.18 330.472 1231.03 330.472C1344.88 330.472 1324.19 213.187 1438.04 213.187C1541.54 213.187 1531.19 330.472 1645.04 330.472C1758.89 330.472 1738.2 213.187 1852.05 213.187C1955.55 213.187 1945.21 330.472 2059.06 330.472C2172.91 330.472 2152.21 213.187 2266.06 213.187C2369.56 213.187 2359.22 330.472 2473.07 330.472C2586.92 330.472 2566.22 213.187 2680.07 213.187C2783.57 213.187 2773.22 330.472 2887.08 330.472C3000.93 330.472 2980.23 213.187 3094.08 213.187C3197.59 213.187 3187.24 330.472 3301.09 330.472C3414.94 330.472 3394.24 213.187 3508.09 213.187C3611.6 213.187 3601.25 330.472 3715.1 330.472C3828.95 330.472 3808.25 213.187 3922.11 213.187C4025.61 213.187 4015.26 330.472 4129.11 330.472C4242.96 330.472 4222.26 213.187 4336.12 213.187C4439.62 213.187 4429.27 330.472 4543.12 330.472C4656.98 330.472 4636.27 213.187 4750.13 213.187C4853.63 213.187 4843.28 330.472 4957.13 330.472C5070.99 330.472 5050.29 213.187 5164.14 213.187C5267.64 213.187 5257.29 330.472 5371.14 330.472C5485 330.472 5464.3 213.187 5578.15 213.187C5681.65 213.187 5671.3 330.472 5785.16 330.472V156.369Z" stroke="black" stroke-width="2"/>
<path fill-rule="evenodd" clip-rule="evenodd" d="M5785.16 117.285C5671.3 117.285 5681.65 0 5578.15 0C5464.3 0 5485 117.285 5371.14 117.285C5257.29 117.285 5267.64 0 5164.14 0C5050.29 0 5070.99 117.285 4957.13 117.285C4843.28 117.285 4853.63 0 4750.13 0C4636.27 0 4656.98 117.285 4543.12 117.285C4429.27 117.285 4439.62 0 4336.12 0C4222.26 0 4242.96 117.285 4129.11 117.285C4015.26 117.285 4025.61 0 3922.11 0C3808.25 0 3828.95 117.285 3715.1 117.285C3601.25 117.285 3611.6 0 3508.09 0C3394.24 0 3414.94 117.285 3301.09 117.285C3187.24 117.285 3197.59 0 3094.08 0C2980.23 0 3000.93 117.285 2887.08 117.285C2773.22 117.285 2783.57 0 2680.07 0C2566.22 0 2586.92 117.285 2473.07 117.285C2359.22 117.285 2369.56 0 2266.06 0C2152.21 0 2172.91 117.285 2059.06 117.285C1945.21 117.285 1955.55 0 1852.05 0C1738.2 0 1758.89 117.285 1645.04 117.285C1531.19 117.285 1541.54 0 1438.04 0C1324.19 0 1344.88 117.285 1231.03 117.285C1117.18 117.285 1127.53 0 1024.03 0C910.178 0 930.872 117.285 817.022 117.285C703.172 117.285 713.519 0 610.017 0C496.166 0 516.861 117.285 403.011 117.285C289.161 117.285 299.508 0 196.006 0C82.1542 0 102.851 117.285 -11 117.285V238.092C102.851 238.092 82.1542 120.807 196.006 120.807C299.508 120.807 289.161 238.092 403.011 238.092C516.861 238.092 496.166 120.807 610.017 120.807C713.519 120.807 703.172 238.092 817.022 238.092C930.872 238.092 910.178 120.807 1024.03 120.807C1127.53 120.807 1117.18 238.092 1231.03 238.092C1344.88 238.092 1324.19 120.807 1438.04 120.807C1541.54 120.807 1531.19 238.092 1645.04 238.092C1758.89 238.092 1738.2 120.807 1852.05 120.807C1955.55 120.807 1945.21 238.092 2059.06 238.092C2172.91 238.092 2152.21 120.807 2266.06 120.807C2369.56 120.807 2359.22 238.092 2473.07 238.092C2586.92 238.092 2566.22 120.807 2680.07 120.807C2783.57 120.807 2773.22 238.092 2887.08 238.092C3000.93 238.092 2980.23 120.807 3094.08 120.807C3197.59 120.807 3187.24 238.092 3301.09 238.092C3414.94 238.092 3394.24 120.807 3508.09 120.807C3611.6 120.807 3601.25 238.092 3715.1 238.092C3828.95 238.092 3808.25 120.807 3922.11 120.807C4025.61 120.807 4015.26 238.092 4129.11 238.092C4242.96 238.092 4222.26 120.807 4336.12 120.807C4439.62 120.807 4429.27 238.092 4543.12 238.092C4656.98 238.092 4636.27 120.807 4750.13 120.807C4853.63 120.807 4843.28 238.092 4957.13 238.092C5070.99 238.092 5050.29 120.807 5164.14 120.807C5267.64 120.807 5257.29 238.092 5371.14 238.092C5485 238.092 5464.3 120.807 5578.15 120.807C5681.65 120.807 5671.3 238.092 5785.16 238.092V117.285Z" fill="#85FF89"/>
<path fill-rule="evenodd" clip-rule="evenodd" d="M5785.16 117.285C5671.3 117.285 5681.65 0 5578.15 0C5464.3 0 5485 117.285 5371.14 117.285C5257.29 117.285 5267.64 0 5164.14 0C5050.29 0 5070.99 117.285 4957.13 117.285C4843.28 117.285 4853.63 0 4750.13 0C4636.27 0 4656.98 117.285 4543.12 117.285C4429.27 117.285 4439.62 0 4336.12 0C4222.26 0 4242.96 117.285 4129.11 117.285C4015.26 117.285 4025.61 0 3922.11 0C3808.25 0 3828.95 117.285 3715.1 117.285C3601.25 117.285 3611.6 0 3508.09 0C3394.24 0 3414.94 117.285 3301.09 117.285C3187.24 117.285 3197.59 0 3094.08 0C2980.23 0 3000.93 117.285 2887.08 117.285C2773.22 117.285 2783.57 0 2680.07 0C2566.22 0 2586.92 117.285 2473.07 117.285C2359.22 117.285 2369.56 0 2266.06 0C2152.21 0 2172.91 117.285 2059.06 117.285C1945.21 117.285 1955.55 0 1852.05 0C1738.2 0 1758.89 117.285 1645.04 117.285C1531.19 117.285 1541.54 0 1438.04 0C1324.19 0 1344.88 117.285 1231.03 117.285C1117.18 117.285 1127.53 0 1024.03 0C910.178 0 930.872 117.285 817.022 117.285C703.172 117.285 713.519 0 610.017 0C496.166 0 516.861 117.285 403.011 117.285C289.161 117.285 299.508 0 196.006 0C82.1542 0 102.851 117.285 -11 117.285V238.092C102.851 238.092 82.1542 120.807 196.006 120.807C299.508 120.807 289.161 238.092 403.011 238.092C516.861 238.092 496.166 120.807 610.017 120.807C713.519 120.807 703.172 238.092 817.022 238.092C930.872 238.092 910.178 120.807 1024.03 120.807C1127.53 120.807 1117.18 238.092 1231.03 238.092C1344.88 238.092 1324.19 120.807 1438.04 120.807C1541.54 120.807 1531.19 238.092 1645.04 238.092C1758.89 238.092 1738.2 120.807 1852.05 120.807C1955.55 120.807 1945.21 238.092 2059.06 238.092C2172.91 238.092 2152.21 120.807 2266.06 120.807C2369.56 120.807 2359.22 238.092 2473.07 238.092C2586.92 238.092 2566.22 120.807 2680.07 120.807C2783.57 120.807 2773.22 238.092 2887.08 238.092C3000.93 238.092 2980.23 120.807 3094.08 120.807C3197.59 120.807 3187.24 238.092 3301.09 238.092C3414.94 238.092 3394.24 120.807 3508.09 120.807C3611.6 120.807 3601.25 238.092 3715.1 238.092C3828.95 238.092 3808.25 120.807 3922.11 120.807C4025.61 120.807 4015.26 238.092 4129.11 238.092C4242.96 238.092 4222.26 120.807 4336.12 120.807C4439.62 120.807 4429.27 238.092 4543.12 238.092C4656.98 238.092 4636.27 120.807 4750.13 120.807C4853.63 120.807 4843.28 238.092 4957.13 238.092C5070.99 238.092 5050.29 120.807 5164.14 120.807C5267.64 120.807 5257.29 238.092 5371.14 238.092C5485 238.092 5464.3 120.807 5578.15 120.807C5681.65 120.807 5671.3 238.092 5785.16 238.092V117.285Z" stroke="black" stroke-width="2"/>
</g>
</g>
<defs>
<filter id="filter0_d" x="-16" y="-1" width="5806.16" height="758" filterUnits="userSpaceOnUse" color-interpolation-filters="sRGB">
<feFlood flood-opacity="0" result="BackgroundImageFix"/>
<feColorMatrix in="SourceAlpha" type="matrix" values="0 0 0 0 0 0 0 0 0 0 0 0 0 0 0 0 0 0 127 0"/>
<feOffset dy="52"/>
<feGaussianBlur stdDeviation="2"/>
<feColorMatrix type="matrix" values="0 0 0 0 0 0 0 0 0 0 0 0 0 0 0 0 0 0 0.117788 0"/>
<feBlend mode="normal" in2="BackgroundImageFix" result="effect1_dropShadow"/>
<feBlend mode="normal" in="SourceGraphic" in2="effect1_dropShadow" result="shape"/>
</filter>
<clipPath id="clip0">
<rect width="5774" height="758" fill="white"/>
</clipPath>
</defs>
</svg>
